<?xml version="1.0" encoding="UTF-8"?>
<svg width="350px" height="183px" viewBox="0 0 350 183" version="1.1" xmlns="http://www.w3.org/2000/svg" xmlns:xlink="http://www.w3.org/1999/xlink">
    <title>Smartling-grey</title>
    <g id="Smartling-grey" stroke="none" stroke-width="1" fill="none" fill-rule="evenodd">
        <rect fill="#F4F4F4" x="0" y="0" width="350" height="183"></rect>
        <g id="smartling" transform="translate(65.000000, 71.000000)" fill-rule="nonzero">
            <path d="M60.0273233,10.24861 C62.4737093,10.24861 64.948054,10.8374901 66.718189,11.8405083 L66.718189,15.9661636 C64.9707705,14.7272438 62.6501986,14.1086577 60.3505957,14.1383638 C58.1121525,14.1680699 56.9920572,14.7866561 56.9920572,16.0605242 C56.9920572,19.6270056 68.2786338,18.3007149 68.2786338,25.6381255 C68.2786338,30.2652899 64.5653693,31.7086577 60.2405083,31.7086577 C57.3817315,31.7086577 54.7291501,31.0324067 52.607784,29.8528991 L52.607784,25.6311358 C54.7767887,27.061068 57.3193082,27.8196298 59.9172359,27.8119142 C62.3042097,27.8119142 63.7772836,27.3121525 63.7772836,25.8373312 C63.7772836,21.9772836 52.4906964,23.4223987 52.4906964,16.1129468 C52.4837172,12.1340747 55.9610802,10.24861 60.0273233,10.24861 L60.0273233,10.24861 Z M92.9749007,10.6592534 L92.9749007,31.2892772 L88.5539317,31.2892772 L88.5539317,18.5890389 L83.1019857,26.8700556 L80.5385226,26.8700556 L75.0865766,18.5593328 L75.0865766,31.2892772 L70.667355,31.2892772 L70.667355,10.6592534 L74.7633042,10.6592534 L81.8351072,21.3866561 L88.8789515,10.6592534 L92.9749007,10.6592534 Z M94.8848292,31.2892772 L103.307387,10.6592534 L108.081334,10.6592534 L116.479428,31.2875298 L111.911676,31.2875298 L110.408896,27.4344718 L100.972836,27.4344718 L99.4403495,31.2945195 L94.8848292,31.2892772 Z M102.37077,23.7753773 L109.030183,23.7753773 L106.143447,16.3785544 C105.945502,15.852963 105.796913,15.3100861 105.699603,14.75695 C105.610335,15.3147886 105.452453,15.8594534 105.229547,16.3785544 L102.37077,23.7753773 Z M118.382367,31.2892772 L118.382367,10.6592534 L126.862589,10.6592534 C130.871168,10.6592534 135.056235,12.1620334 135.056235,17.3780778 C135.056235,20.9148531 133.051946,22.7129468 130.546148,23.5080222 L136.705798,31.2875298 L131.615568,31.2875298 L126.044797,24.0671962 L122.803336,24.0671962 L122.803336,31.2875298 L118.382367,31.2892772 Z M122.803336,20.3853852 L127.075774,20.3853852 C128.93328,20.3853852 130.553137,19.5606037 130.553137,17.4689436 C130.553137,15.3475774 128.93328,14.5507546 127.075774,14.5507546 L122.803336,14.5507546 L122.803336,20.3853852 Z M153.858459,10.6592534 L153.858459,14.6398729 L147.522319,14.6398729 L147.522319,31.2892772 L143.131056,31.2892772 L143.131056,14.6398729 L136.794917,14.6398729 L136.794917,10.6592534 L153.858459,10.6592534 Z M160.304686,10.6592534 L160.304686,27.3121525 L170.19857,27.3121525 L170.19857,31.2892772 L155.885465,31.2892772 L155.885465,10.6592534 L160.304686,10.6592534 Z M177.546465,10.6592534 L177.546465,31.2892772 L173.125496,31.2892772 L173.125496,10.6592534 L177.546465,10.6592534 Z M181.153137,31.2892772 L181.153137,10.6592534 L185.308499,10.6592534 L194.919301,24.1266084 C194.861636,23.2721207 194.83193,22.2411438 194.83193,21.2975377 L194.83193,10.6592534 L199.251152,10.6592534 L199.251152,31.2892772 L195.097538,31.2892772 L185.486736,17.8219222 C185.546148,18.6764098 185.574106,19.7091342 185.574106,20.6509929 L185.574106,31.2892772 L181.153137,31.2892772 Z M213.047021,10.2486045 C215.2276,10.2467816 217.384731,10.6984402 219.381414,11.5749007 L219.381414,15.7896743 C217.820969,14.75695 215.727562,14.197776 213.635902,14.197776 C209.952343,14.197776 206.32645,16.1426529 206.32645,20.9760127 C206.32645,26.4576648 210.364734,27.8416203 213.4,27.8416203 C214.174145,27.8527237 214.943864,27.7230556 215.671644,27.4589357 L215.671644,20.0953137 L219.886418,20.0953137 L219.886418,30.3177125 C217.761321,31.2218634 215.477018,31.6923883 213.167593,31.701668 C207.392375,31.701668 201.821604,28.5563145 201.821604,20.9760127 C201.826847,13.4900715 207.38888,10.2486045 213.047021,10.2486045 L213.047021,10.2486045 Z" id="Shape" fill="#000000"></path>
            <circle id="Oval" fill="#F26C5D" cx="17.2190627" cy="24.7818904" r="2.08117554"></circle>
            <path d="M38.1583797,36.3463181 C37.69829,36.3458794 37.2711993,36.1073465 37.0295315,35.7158374 C36.7878636,35.3243283 36.7660526,34.8356273 36.9718824,34.4241461 C41.1601961,25.975259 39.4798471,15.7949473 32.7985447,9.14018479 C26.1172424,2.48542227 15.9303233,0.845605693 7.49817315,5.0675139 C6.8424063,5.39612113 6.04441343,5.13090586 5.7158062,4.475139 C5.38719896,3.81937214 5.65241424,3.02137927 6.3081811,2.69277204 C15.763776,-2.05033795 27.1933279,-0.213421381 34.6865477,7.25364127 C42.1797675,14.7207039 44.0566404,26.1437625 39.3466243,35.6158856 C39.1215095,36.0653634 38.661075,36.3483952 38.1583797,36.3463181 Z" id="Path" fill="#F26C5D"></path>
            <path d="M17.2225576,32.3464663 C14.1506399,32.3478791 11.380417,30.4984885 10.2038654,27.6608123 C9.02731369,24.8231361 9.67618523,21.5561273 11.8478593,19.3834534 C14.0195333,17.2107795 17.2862431,16.5604042 20.1244606,17.7356496 C22.962678,18.910895 24.8133439,21.6802663 24.8133439,24.7521843 C24.8085334,28.9430318 21.4134024,32.3397259 17.2225576,32.3464663 L17.2225576,32.3464663 Z M17.2225576,19.8122319 C15.2236676,19.8122319 13.4216341,21.0164277 12.6568554,22.8632289 C11.8920767,24.7100301 12.3151879,26.8356803 13.7288665,28.248859 C15.142545,29.6620377 17.2683447,30.0843971 19.1148753,29.3189652 C20.9614059,28.5535334 22.1649642,26.7510741 22.1642577,24.7521843 C22.1613664,22.0244401 19.9503026,19.8141581 17.2225576,19.8122319 L17.2225576,19.8122319 Z" id="Shape" fill="#F26C5D"></path>
            <path d="M17.2225576,38.0500456 C15.8768578,38.0513055 14.538782,37.8480311 13.25417,37.4471803 C12.5625744,37.215455 12.1832481,36.4732271 12.4005885,35.776977 C12.6179289,35.0807268 13.3521348,34.6860974 14.0527403,34.8889595 C18.7110224,36.3412724 23.7590612,34.427063 26.2831489,30.2512054 C28.8072365,26.0753479 28.1556683,20.7160239 24.7045269,17.2666142 C21.2533855,13.8172044 15.8937353,13.1683261 11.719145,15.6945092 C7.5445548,18.2206923 5.63287919,23.2696912 7.08752979,27.9272438 C7.25068571,28.3895957 7.14835905,28.9041378 6.82071842,29.2688853 C6.4930778,29.6336327 5.99241936,29.7903665 5.51527803,29.6775604 C5.03813669,29.5647542 4.66067108,29.2004137 4.53105639,28.7275616 C2.81191113,23.2417637 4.81211621,17.2723466 9.48941001,13.9298384 C14.1667038,10.5873302 20.462184,10.6284484 25.0954182,14.0317672 C29.7286524,17.435086 31.6507131,23.430121 29.8600579,28.892995 C28.0694026,34.3558689 22.9714217,38.0500456 17.2225576,38.0500456 L17.2225576,38.0500456 Z" id="Path" fill="#F26C5D"></path>
            <path d="M25.3166005,41.8786338 C24.6979003,41.8786338 24.159572,41.4552096 24.0139131,40.8538999 C23.8682543,40.2525901 24.1531216,39.6297169 24.7032566,39.3466243 C31.0193042,36.1068888 34.53364,29.1710477 33.4105818,22.1619761 C32.2875235,15.1529044 26.7821064,9.66229152 19.7700362,8.55811024 C12.757966,7.45392896 5.8316129,10.9869277 2.60889595,17.3116759 C2.27112053,17.9708205 1.46295716,18.2313417 0.80381255,17.8935663 C0.144667939,17.5557909 -0.115853262,16.7476275 0.22192216,16.0884829 C3.97360111,8.73243636 12.031827,4.6249232 20.1885917,5.91088814 C28.3453564,7.19685307 34.7489757,13.5843665 36.0554777,21.7378669 C37.3619796,29.8913673 33.2747724,37.9599116 25.928197,41.7301033 C25.7388247,41.826956 25.5293014,41.8778402 25.3166005,41.8786338 L25.3166005,41.8786338 Z" id="Path" fill="#F26C5D"></path>
        </g>
    </g>
</svg>